<?xml version="1.0" encoding="utf-8"?>
<!-- Generator: Adobe Illustrator 22.1.0, SVG Export Plug-In . SVG Version: 6.00 Build 0)  -->
<svg version="1.1" id="Capa_1" xmlns="http://www.w3.org/2000/svg" xmlns:xlink="http://www.w3.org/1999/xlink" x="0px" y="0px"
	 viewBox="0 0 73.2 86.5" style="enable-background:new 0 0 73.2 86.5;" xml:space="preserve">
<style type="text/css">
	.st0{fill:#404C59;}
</style>
<g>
	<path class="st0" d="M11.6,11.8c0.4-0.1,0.7-0.2,0.9-0.2c10.8,0,21.6-0.2,32.4,0.2c6.9,0.3,12.3,3.7,14.9,10.5
		c1.9,5,1,12.5-7.2,17.3c0.4,0.2,0.7,0.4,1,0.5C66.1,44.2,66.8,61.5,58,69c-3.5,3-7.6,4.8-12.1,4.8c-11.2,0.2-22.3,0.1-33.5,0.1
		c-0.2,0-0.4-0.1-0.8-0.2C11.6,53.1,11.6,32.5,11.6,11.8z M28.9,59c4.2,0,8.3,0.2,12.3-0.1c2.6-0.1,4.5-2.3,4.6-4.7
		c0.1-2.3-1.4-4.8-3.7-5c-4.4-0.3-8.8-0.1-13.2-0.1C28.9,52.4,28.9,55.6,28.9,59z M28.9,35c3.6,0,7,0.2,10.3-0.1
		c2.5-0.2,3.9-1.8,4-4c0.1-2.4-1.3-4.3-3.8-4.5c-3.5-0.3-7-0.1-10.5-0.1C28.9,29.3,28.9,32,28.9,35z"/>
</g>
</svg>
