<?xml version="1.0" encoding="utf-8"?>
<!-- Generator: Adobe Illustrator 22.1.0, SVG Export Plug-In . SVG Version: 6.00 Build 0)  -->
<svg version="1.1" id="Capa_1" xmlns="http://www.w3.org/2000/svg" xmlns:xlink="http://www.w3.org/1999/xlink" x="0px" y="0px"
	 viewBox="0 0 500 86.5" style="enable-background:new 0 0 500 86.5;" xml:space="preserve">
<style type="text/css">
	.st0{fill:#404C59;}
</style>
<g>
	<path class="st0" d="M197,73.8c-5.5,0-10.9,0-16.6,0c0-1,0-1.9,0-2.7c0-7.8,0-15.6-0.1-23.4c0-2.9-1.2-5.2-4-6.2
		c-2.9-1.1-5.8-0.8-8.3,1.3c-2.1,1.8-2.6,4.3-2.6,6.9c0,7.2,0,14.4,0,21.6c0,0.8,0,1.6,0,2.5c-5.6,0-10.9,0-16.6,0c0-1,0-1.8,0-2.7
		c0-7.7,0-15.5-0.1-23.2c0-2.8-1.2-5-3.7-6.2c-2.7-1.3-5.4-1.1-7.9,0.5c-2.6,1.7-3.2,4.4-3.2,7.3c-0.1,7.2,0,14.4,0,21.6
		c0,0.8,0,1.6,0,2.6c-5.5,0-10.9,0-16.5,0c0-15.5,0-30.9,0-46.5c5.3,0,10.6,0,16.2,0c0,1.7,0,3.4,0,5.9c3.9-5.1,8.5-7.3,14.1-7.4
		c5.7-0.1,10.2,2,13.2,7.2c5.6-6.3,12.7-8.1,20.6-6.9c8.8,1.4,15.1,7.8,15.4,16.7C197.3,53.1,197,63.3,197,73.8z"/>
	<path class="st0" d="M11.6,11.8c0.4-0.1,0.7-0.2,0.9-0.2c10.8,0,21.6-0.2,32.4,0.2c6.9,0.3,12.3,3.7,14.9,10.5
		c1.9,5,1,12.5-7.2,17.3c0.4,0.2,0.7,0.4,1,0.5C66.1,44.2,66.8,61.5,58,69c-3.5,3-7.6,4.8-12.1,4.8c-11.2,0.2-22.3,0.1-33.5,0.1
		c-0.2,0-0.4-0.1-0.8-0.2C11.6,53.1,11.6,32.5,11.6,11.8z M28.9,59c4.2,0,8.3,0.2,12.3-0.1c2.6-0.1,4.5-2.3,4.6-4.7
		c0.1-2.3-1.4-4.8-3.7-5c-4.4-0.3-8.8-0.1-13.2-0.1C28.9,52.4,28.9,55.6,28.9,59z M28.9,35c3.6,0,7,0.2,10.3-0.1
		c2.5-0.2,3.9-1.8,4-4c0.1-2.4-1.3-4.3-3.8-4.5c-3.5-0.3-7-0.1-10.5-0.1C28.9,29.3,28.9,32,28.9,35z"/>
	<path class="st0" d="M345.4,71.1c-0.1,0.9-0.1,1.7-0.2,2.7c-5.2,0-10.5,0-15.9,0c0-21.4,0-42.7,0-64.2c5.4,0,10.7,0,16.3,0
		c0,6.5,0,13.1,0,19.7c0.4,0,0.7,0.1,0.8,0c14.9-8.3,31.7-0.2,34.3,16.7c1.6,10.3-1,19.5-10.2,25.4c-7.9,5.1-16.3,5.6-24.4,0
		C345.9,71.2,345.7,71.2,345.4,71.1z M354.7,60c5.5,0,9.5-4.1,9.5-9.5c0-5.3-4.1-9.4-9.4-9.4c-5.4,0-9.6,4.1-9.6,9.5
		C345.2,56,349.2,60,354.7,60z"/>
	<path class="st0" d="M200.7,9.6c5.5,0,10.9,0,16.5,0c0,6.6,0,13.1,0,19.8c12.5-5.6,23.1-3.7,30,5.1c7,9,7,23.5-0.1,32.3
		c-3.7,4.6-8.5,7.2-14.3,8.2c-5.8,0.9-11.1-0.2-16.1-3.9c-0.1,1.1-0.2,1.9-0.4,2.8c-5.2,0-10.4,0-15.7,0
		C200.7,52.4,200.7,31.1,200.7,9.6z M226,60c5.5,0,9.4-3.9,9.4-9.5c0-5.4-3.9-9.4-9.3-9.5c-5.4-0.1-9.6,4.1-9.6,9.4
		C216.4,55.8,220.5,60,226,60z"/>
	<path class="st0" d="M485.4,68.5c-4.7,3.3-9.7,5.2-15,6c-8.6,1.3-16.9,0.5-23.8-5.3c-8-6.7-9.8-15.6-7.5-25.3
		c2.2-9.3,8.6-15,17.9-17.3c5.2-1.3,10.4-1.1,15.5,0.5c10.9,3.4,15.9,12.3,15.8,22.7c0,1.9-0.3,3.7-0.5,5.8c-10.7,0-21.4,0-32.6,0
		c1.5,3.2,3.6,4.7,6.4,5.5c4.2,1.1,8.2,0.3,12.1-1.1c1.8-0.6,3.4-1.5,5.4-2.3C481.2,61.2,483.2,64.8,485.4,68.5z M472.2,44.5
		c-1.7-4-5-6-9-5.7c-4,0.3-7.1,2.4-7.9,5.7C460.9,44.5,466.4,44.5,472.2,44.5z"/>
	<path class="st0" d="M322.9,68.7c-4,2.9-8.2,4.6-12.8,5.6c-6,1.3-11.9,1.3-17.8-0.5c-10.2-3.1-16.4-11.6-16.6-22.6
		c-0.2-12,6.4-21,17.5-24.2c10.5-3,21.8,0.2,27.8,7.8c3.1,4,4.5,8.6,4.6,13.6c0.1,2.4-0.2,4.9-0.4,7.6c-10.9,0-21.6,0-32.3,0
		c1.1,3.5,4.6,5.8,9.1,5.8c5.1,0.1,9.7-1.4,14.4-4C318.7,61.5,320.8,65,322.9,68.7z M309.7,44.8c-1.5-3.9-4.6-5.9-8.6-5.8
		c-4,0.1-7.1,2.1-8.4,5.7c0.5,0,0.9,0.1,1.3,0.1C299.1,44.8,304.3,44.8,309.7,44.8z"/>
	<path class="st0" d="M434.1,55.8c-10.9,0-21.5,0-32.2,0c1.2,3.5,4.6,5.7,9.1,5.8c4.4,0.1,8.4-1,12.3-2.9c0.7-0.3,1.3-0.7,2.1-1.1
		c2.1,3.6,4.2,7.1,6.4,10.8c-4.7,3.4-9.8,5.3-15.3,6.1c-7.2,1.1-14.3,0.5-20.7-3.4c-8.4-5.1-11.7-13-11.1-22.5
		c0.7-10.2,5.7-17.7,15.5-21.1c10.3-3.5,20.3-2.6,28.4,5.5C434.9,39.3,435.4,47.3,434.1,55.8z M418.4,44.5c-1.1-3.5-4.2-5.7-8.3-5.7
		c-4.1,0-7.5,2.3-8.5,5.7C407.3,44.5,412.8,44.5,418.4,44.5z"/>
	<path class="st0" d="M67.4,27.1c5.7,0,11.1,0,16.7,0c0,0.9,0,1.7,0,2.5c0,7.9,0,15.8,0,23.6c0,4.9,3.8,7.7,8.5,6.5
		c2.8-0.7,4.5-3.1,4.5-6.5c0-7.8,0-15.6,0-23.4c0-0.8,0-1.6,0-2.7c5.5,0,10.9,0,16.6,0c0,0.6,0.1,1.2,0.1,1.8c0,8,0.1,16.1,0,24.1
		c0,2.5-0.3,5.1-1,7.5c-1.7,6.6-6.1,10.9-12.5,13c-5.8,1.9-11.8,2-17.8,0.5c-8.8-2.2-14-8.3-15.1-17.5c-0.2-1.9-0.1-3.9-0.1-5.8
		C67.4,43,67.4,35.2,67.4,27.1z"/>
	<path class="st0" d="M272.3,73.8c-5.5,0-10.9,0-16.3,0c0-21.4,0-42.8,0-64.2c5.5,0,10.8,0,16.3,0C272.3,30.9,272.3,52.2,272.3,73.8
		z"/>
</g>
</svg>
